<svg version="1.0" xmlns="http://www.w3.org/2000/svg"
 width="200.000000pt" height="200.000000pt" viewBox="0 0 200.000000 200.000000"
 preserveAspectRatio="xMidYMid meet">

<g transform="translate(0.000000,200.000000) scale(0.100000,-0.100000)"
fill="#000000" stroke="none">
<path d="M231 1823 c-20 -7 -41 -20 -48 -30 -10 -13 -13 -188 -13 -816 0 -802
1 -827 34 -849 6 -4 347 -8 757 -8 746 0 746 0 765 21 18 20 19 50 22 823 2
823 2 845 -36 862 -10 4 -339 8 -732 8 -535 1 -723 -2 -749 -11z m369 -303 l0
-110 105 0 105 0 6 28 c17 68 73 112 146 112 72 0 116 -38 142 -123 5 -16 17
-17 108 -15 l103 3 3 108 3 108 107 -3 107 -3 3 -648 2 -647 -580 0 -580 0 0
643 c0 354 3 647 7 650 3 4 53 7 110 7 l103 0 0 -110z"/>
<path d="M1032 927 l-142 -142 -73 73 -73 72 -49 -50 -50 -51 106 -104 c85
-84 112 -105 134 -105 24 0 60 31 207 178 l179 177 -48 47 -48 48 -143 -143z"/>
</g>
</svg>
