<svg version="1.0" xmlns="http://www.w3.org/2000/svg"
 width="200.000000pt" height="200.000000pt" viewBox="0 0 200.000000 200.000000"
 preserveAspectRatio="xMidYMid meet">

<g transform="translate(0.000000,200.000000) scale(0.100000,-0.100000)"
fill="#000000" stroke="none">
<path d="M1238 1825 c-32 -8 -80 -26 -107 -40 -49 -24 -121 -80 -121 -94 0 -3
26 -12 58 -20 296 -68 543 -315 621 -623 l18 -71 43 54 c211 265 94 668 -226
780 -78 27 -210 33 -286 14z"/>
<path d="M705 1536 c-345 -79 -584 -396 -562 -742 12 -181 81 -330 211 -459
90 -89 161 -135 263 -170 192 -67 374 -55 563 38 67 33 103 59 171 127 95 94
146 175 187 298 22 67 26 94 26 207 0 98 -4 145 -18 190 -74 241 -251 423
-481 495 -89 28 -272 36 -360 16z m89 -388 c30 -29 58 -66 62 -81 9 -40 -22
-81 -66 -85 -29 -3 -41 4 -91 54 -69 69 -78 108 -33 143 42 33 69 27 128 -31z
m401 -263 c29 -28 31 -45 10 -84 -22 -43 -104 -111 -133 -111 -36 0 -72 37
-72 74 0 24 13 43 57 88 66 66 98 74 138 33z m-433 -145 c40 -41 33 -70 -36
-137 -42 -41 -61 -53 -85 -53 -41 0 -71 31 -71 73 0 28 10 43 59 90 35 33 69
57 81 57 12 0 35 -14 52 -30z"/>
</g>
</svg>
