<svg version="1.0" xmlns="http://www.w3.org/2000/svg"
 width="1200.000000pt" height="200.000000pt" viewBox="0 0 1200.000000 200.000000"
 preserveAspectRatio="xMidYMid meet">

<g transform="translate(0.000000,200.000000) scale(0.100000,-0.100000)"
fill="#000000" stroke="none">
<path d="M11600 1547 c0 -200 -3 -367 -7 -370 -3 -4 -25 11 -49 32 -81 76
-189 113 -323 113 -228 0 -405 -109 -506 -310 -43 -86 -56 -141 -62 -263 -10
-205 42 -356 165 -479 111 -111 239 -162 407 -163 142 0 240 34 333 118 l52
47 0 -71 0 -71 150 0 150 0 0 890 0 890 -155 0 -155 0 0 -363z m-198 -523 c96
-31 177 -133 199 -251 12 -66 -2 -166 -31 -222 -24 -47 -84 -103 -140 -133
-65 -33 -184 -37 -260 -9 -63 23 -130 83 -159 139 -65 128 -40 311 55 405 90
89 202 113 336 71z"/>
<path d="M6095 1863 c-325 -38 -554 -189 -685 -450 -124 -248 -126 -600 -5
-845 47 -94 91 -152 173 -229 106 -99 212 -155 380 -201 113 -31 397 -31 527
-1 130 31 253 78 342 131 l78 47 3 373 2 372 -345 0 -345 0 0 -145 0 -145 175
0 175 0 0 -129 0 -130 -66 -31 c-182 -86 -414 -83 -566 7 -170 102 -259 274
-259 502 1 121 20 204 72 300 151 284 553 345 845 129 l61 -46 121 103 121
102 -37 35 c-192 181 -503 283 -767 251z"/>
<path d="M110 990 l0 -861 413 4 c389 4 416 5 492 26 323 90 533 306 601 619
27 121 23 321 -9 443 -83 319 -306 524 -652 601 -78 18 -139 21 -467 25 l-378
5 0 -862z m830 641 c186 -55 329 -172 408 -334 50 -104 66 -177 66 -312 0
-206 -56 -350 -188 -480 -82 -81 -155 -123 -281 -161 -86 -25 -103 -27 -357
-32 l-268 -4 0 677 0 677 273 -5 c243 -4 280 -7 347 -26z"/>
<path d="M3343 1718 l-83 -10 0 -204 0 -204 -80 0 -80 0 0 -80 0 -80 79 0 80
0 3 -387 c5 -458 7 -473 93 -560 103 -102 255 -108 475 -18 46 19 90 41 96 48
9 9 1 27 -32 79 l-44 67 -63 -28 c-172 -78 -287 -60 -317 48 -6 21 -10 189
-10 394 l0 357 200 0 200 0 0 80 0 80 -200 0 -200 0 0 215 c0 199 -1 215 -17
214 -10 -1 -55 -6 -100 -11z"/>
<path d="M8915 1320 c-264 -29 -462 -239 -494 -523 -34 -302 106 -559 355
-653 194 -73 414 -40 540 80 24 24 46 40 49 38 3 -3 5 -34 5 -69 l0 -63 150 0
150 0 0 590 0 590 -160 0 -160 0 0 -71 0 -71 -39 35 c-103 93 -241 134 -396
117z m191 -281 c138 -25 234 -129 253 -276 20 -148 -45 -280 -169 -345 -38
-19 -60 -23 -140 -23 -87 0 -100 3 -148 30 -64 35 -96 71 -131 145 -22 46 -26
69 -26 145 0 76 4 99 26 145 14 30 37 69 52 85 33 40 116 85 175 95 26 4 47 8
48 9 0 0 27 -4 60 -10z"/>
<path d="M10527 1319 c-82 -12 -178 -61 -243 -125 -31 -30 -58 -54 -60 -54 -2
0 -4 38 -4 85 l0 85 -160 0 -160 0 0 -590 0 -590 159 0 159 0 4 312 c3 264 7
320 21 356 27 70 72 118 141 152 55 27 75 32 150 33 l86 2 0 173 c0 158 -1
172 -17 171 -10 -1 -44 -5 -76 -10z"/>
<path d="M2221 1310 c-156 -33 -258 -94 -353 -211 -140 -171 -169 -463 -66
-675 114 -235 399 -362 662 -294 103 26 173 68 241 142 l55 61 0 -101 0 -102
95 0 95 0 0 585 0 585 -95 0 -95 0 0 -100 c0 -55 -2 -100 -6 -100 -3 0 -30 27
-61 60 -63 68 -112 100 -199 131 -68 23 -206 33 -273 19z m265 -190 c76 -27
128 -63 180 -127 59 -73 86 -148 92 -261 7 -142 -27 -240 -115 -327 -72 -72
-156 -108 -266 -113 -95 -5 -154 7 -227 44 -201 104 -273 386 -152 602 92 165
305 244 488 182z"/>
<path d="M4370 1304 c-342 -73 -539 -444 -425 -801 64 -201 223 -339 435 -379
217 -41 409 26 533 186 l27 35 0 -107 0 -108 95 0 95 0 0 585 0 585 -100 0
-100 0 -1 -107 c0 -104 -1 -107 -16 -83 -32 48 -118 122 -176 152 -110 55
-239 70 -367 42z m333 -202 c165 -81 258 -272 227 -467 -25 -162 -123 -278
-279 -330 -40 -13 -75 -16 -146 -13 -83 3 -101 8 -168 41 -120 59 -185 145
-214 281 -21 102 -5 225 42 316 23 45 92 118 139 148 76 48 133 62 237 59 85
-2 103 -6 162 -35z"/>
<path d="M7120 894 c0 -443 2 -469 51 -580 31 -69 112 -145 185 -173 75 -28
194 -42 270 -31 107 16 180 50 264 127 l40 35 0 -71 0 -71 160 0 160 0 0 590
0 590 -159 0 -159 0 -5 -337 c-2 -212 -8 -351 -15 -373 -23 -71 -75 -143 -126
-175 -42 -25 -61 -30 -125 -33 -141 -6 -204 54 -222 211 -4 39 -8 215 -9 390
l0 317 -155 0 -155 0 0 -416z"/>
</g>
</svg>
